#!OML:ASF F:\VICON\USERDATA\INSTALL\rory3\rory3.ASF
:FULLY-SPECIFIED
:DEGREES
69
root -6.696684328764377 17.674937530125423 -0.6289223857777673 -171.83681836755576 11.581081373891944 -182.5451501216433
lfemur -13.949468998823942 -12.559701323064917 -20.856141093102543
ltibia 16.77007124971807
lfoot 27.933449707372215 -44.66471649051243
ltoes 57.88276701977813
rfemur 11.484929759565606 -5.807573717739513 9.431006676287303
rtibia 31.027118349158616
rfoot 8.028923459528254 -12.490562224495795
rtoes 3.164571926343612
lowerback -5.532436364536386 7.011327235163198 12.951864349675052
upperback -4.628026562669503 12.59270149339349 11.292039113128181
thorax -2.520922766372764 7.36355426129674 6.802755782259717
lowerneck -3.1460638615840084 -21.777192325262032 -2.1931381638718044
upperneck 10.10264680129929 -32.33384912710787 5.6560200757627905
head 4.908576516253438 -16.028773857910736 -0.3621361992155242
lclavicle -6.99558480587258e-15 -5.264767780091714e-15
lhumerus 49.429886918581325 -1.9969277342078868 72.41811031379437
lradius 40.9685860547413
lwrist 49.91508494212333
lhand -16.1535412799662 22.926168855489326
lfingers 7.125020000000003
lthumb -169.8106836635266 385.8186102752006
rclavicle -7.010528647769993e-15 -5.1493081116392265e-15
rhumerus 75.69480168849145 36.85743392023863 -58.76242171299242
rradius 23.707443925579483
rwrist -14.581969015073277
rhand -17.19380532471072 12.224471495460758
rfingers 7.125020000000003
rthumb 10.403148708080277 -16.449068068330398
70
root -6.6049009294891725 17.674193837130467 -0.8602277260137086 -169.34798355659348 6.590866731863365 -181.97377777819747
lfemur -14.708678129729549 -13.041506690573724 -20.256574301613696
ltibia 15.825600059784884
lfoot 32.411360421408865 -44.897474440737994
ltoes 60.33126389132039
rfemur 11.873989396332483 -6.165181318787613 11.240115759204958
rtibia 30.09012117381533
rfoot 9.299035633240507 -14.724449731921302
rtoes 5.493863122264688
lowerback -5.573218245684185 7.583155360185859 13.688899781287194
upperback -5.874407499150655 13.788445822623876 10.613803364570867
thorax -3.818435048955197 8.050743163061638 5.53168632709864
lowerneck -3.4349930620674867 -21.585030558509207 -1.9133676193502458
upperneck 8.504631823542319 -32.620838664424284 6.322040995017114
head 4.617054158391537 -16.146109946925435 -0.09694236247902743
lclavicle -6.99379457935381e-15 -5.260629112581864e-15
lhumerus 51.55328461270406 0.8634588276000628 71.71677243454651
lradius 44.630977498032685
lwrist 47.048923003875196
lhand -17.001118969386997 22.146239828232638
lfingers 7.125020000000003
lthumb -171.38521758168307 370.7734150426179
rclavicle -7.006458326413288e-15 -5.1465569760308506e-15
rhumerus 81.74293399287538 34.70110254408017 -56.082600318137224
rradius 23.76664655120451
rwrist -15.074282541720063
rhand -19.87640445138185 14.607015809716305
rfingers 7.125020000000003
rthumb 7.679276447796056 -13.758628539896337
71
root -6.539335902057348 17.683150379240995 -1.0854189568989012 -166.60031143523128 2.5369966199338485 -180.41847338537642
lfemur -15.583644527654243 -13.326751222964003 -19.6657770314298
ltibia 15.44114813562447
lfoot 35.855040215066 -45.27826183783785
ltoes 61.44810299188998
rfemur 12.357896378178967 -6.607555332039602 12.913949478661825
rtibia 28.583867867773293
rfoot 10.77339483967885 -16.96338700638602
rtoes 7.727066313949589
lowerback -6.005286324519546 7.856760499697744 14.104835741850493
upperback -7.136953273629212 14.613559568172933 9.858289513087517
thorax -4.923800949171053 8.539601522645524 4.324571187363304
lowerneck -3.889107873927209 -21.956122769323777 -1.6675556463975036
upperneck 7.077094478821565 -32.62000121080929 6.703807560178894
head 4.402793752834844 -16.06501829702411 0.1181462420944479
lclavicle -6.992738744321866e-15 -5.260763189481902e-15
lhumerus 54.113499318908765 3.5637573865607592 71.27528432958975
lradius 48.2424085311605
lwrist 42.73315823656231
lhand -17.516283819529864 21.576624020378528
lfingers 7.125020000000003
lthumb -172.1888027084837 376.4627083155381
rclavicle -7.0071223235233776e-15 -5.146987935951233e-15
rhumerus 86.49185721921523 32.461680996700224 -54.17246716399636
rradius 23.693657853111517
rwrist -15.374780517854898
rhand -22.628681364572156 16.043419656555
rfingers 7.125020000000003
rthumb 4.759296531234085 -11.468891621550478
72
root -6.468191114157181 17.70344096446461 -1.286475235817583 -164.46709531106723 -0.8577426832151964 -178.9091035094647
lfemur -16.640789339371317 -13.750458212024276 -18.941761901932217
ltibia 15.253764321064486
lfoot 38.16444006478225 -45.771117771565315
ltoes 62.047866285389574
rfemur 12.83622043412122 -7.00802431013331 14.521518792449243
rtibia 26.620862909674653
rfoot 12.361474717951872 -19.580800230604602
rtoes 10.341117023345683
lowerback -6.652060350473905 8.187905407037963 14.35512096011682
upperback -8.33015935175713 15.306645396143661 9.00118910727382
thorax -5.701839928327345 8.817769989303422 3.0306898868916714
lowerneck -4.482191856365265 -22.18748380377204 -1.3849439532524102
upperneck 5.735539323931841 -32.552530379799556 7.05038862539184
head 4.145932317764394 -15.899346490630453 0.31917310969176493
lclavicle -6.985976808184773e-15 -5.2690882762584005e-15
lhumerus 56.690936282733226 5.544049088806339 70.76816684199859
lradius 51.89116425770055
lwrist 40.012008584867374
lhand -17.70358351495574 21.45148520790427
lfingers 7.125020000000003
lthumb -173.1665580758206 380.5836494361248
rclavicle -7.008270237597925e-15 -5.147943984103268e-15
rhumerus 90.16327499448838 30.13979467342869 -53.13032434269212
rradius 23.916960435243844
rwrist -15.087288779975982
rhand -24.996174988405397 16.664715732077664
rfingers 7.125020000000003
rthumb 2.008586105365346 -10.219376584653764
